<?xml version="1.0" standalone="no"?>
<!DOCTYPE svg PUBLIC "-//W3C//DTD SVG 20010904//EN"
 "http://www.w3.org/TR/2001/REC-SVG-20010904/DTD/svg10.dtd">
<svg version="1.0" xmlns="http://www.w3.org/2000/svg"
 width="512.000000pt" height="512.000000pt" viewBox="0 0 512.000000 512.000000"
 preserveAspectRatio="xMidYMid meet">

<g transform="translate(0.000000,512.000000) scale(0.100000,-0.100000)"
fill="#000000" stroke="none">
<path d="M1510 4680 c-16 -16 -20 -33 -20 -80 l0 -60 -210 0 c-172 0 -217 -3
-241 -16 -54 -28 -59 -55 -59 -353 l0 -269 -237 -4 -238 -3 -55 -31 c-66 -37
-113 -101 -129 -174 -8 -35 -11 -439 -11 -1300 l0 -1250 -81 0 c-128 0 -166
-34 -176 -156 -20 -232 97 -452 289 -542 103 -49 138 -52 568 -52 349 0 401 2
414 16 20 20 20 48 0 68 -13 14 -64 16 -408 16 -434 0 -465 3 -565 63 -68 41
-115 95 -155 177 -29 62 -31 71 -31 185 l0 120 931 3 932 2 4 -69 c4 -84 36
-137 105 -178 l48 -28 375 0 375 0 48 28 c69 41 101 94 105 178 l4 69 932 -2
931 -3 0 -120 c0 -114 -2 -123 -31 -185 -40 -82 -87 -136 -155 -177 -111 -66
-22 -63 -1635 -63 -1316 0 -1464 -2 -1478 -16 -19 -18 -20 -38 -6 -65 11 -19
38 -19 1485 -19 1037 0 1490 3 1527 11 207 43 371 223 399 438 21 158 -3 260
-66 289 -14 7 -62 12 -105 12 l-80 0 0 1250 c0 861 -3 1265 -11 1300 -17 78
-63 139 -133 175 l-59 30 -234 3 -233 3 0 270 c0 298 -5 325 -59 353 -24 13
-69 16 -241 16 l-210 0 0 60 c0 47 -4 64 -20 80 -24 24 -29 24 -58 4 -19 -13
-22 -24 -22 -80 l0 -64 -205 0 -205 0 0 65 c0 58 -3 66 -25 81 -23 15 -27 15
-50 0 -22 -15 -25 -23 -25 -81 l0 -65 -205 0 -205 0 0 65 c0 58 -3 66 -25 81
-23 15 -27 15 -50 0 -22 -15 -25 -23 -25 -81 l0 -65 -205 0 -205 0 0 65 c0 58
-3 66 -25 81 -23 15 -27 15 -50 0 -22 -15 -25 -23 -25 -81 l0 -65 -205 0 -205
0 0 64 c0 56 -3 67 -22 80 -29 20 -34 20 -58 -4z m2528 -1752 l2 -988 -323 0
c-334 0 -346 -1 -360 -41 -3 -9 1 -26 9 -38 15 -21 20 -21 359 -21 l345 0 32
29 33 29 3 806 2 806 140 0 140 0 0 -1040 0 -1040 -1860 0 -1860 0 0 468 c0
407 -2 470 -16 490 -20 28 -69 30 -84 3 -6 -13 -10 -196 -10 -525 0 -493 1
-507 20 -526 20 -20 33 -20 1950 -20 1917 0 1930 0 1950 20 20 20 20 33 20
1130 0 1097 0 1110 -20 1130 -18 18 -33 20 -195 20 l-175 0 0 85 0 85 228 0
c209 0 230 -2 260 -20 18 -11 41 -34 52 -52 20 -32 20 -53 20 -1300 l0 -1268
-2140 0 -2140 0 0 1268 c0 1247 0 1268 20 1300 11 18 34 41 52 52 30 18 51 20
261 20 l227 0 0 -85 0 -85 -175 0 c-162 0 -177 -2 -195 -20 -19 -19 -20 -33
-20 -434 0 -386 1 -415 18 -436 24 -30 68 -21 82 16 6 15 10 182 10 395 l0
369 140 0 140 0 2 -806 3 -806 33 -29 32 -29 989 0 c950 0 989 1 1005 19 19
21 9 64 -19 75 -9 3 -451 6 -981 6 l-964 0 0 983 c0 541 3 987 7 990 3 4 668
6 1477 5 l1471 -3 3 -987z m-1051 -1939 c-7 -60 -28 -96 -63 -109 -40 -15
-703 -13 -734 3 -32 16 -60 72 -60 120 l0 37 431 0 432 0 -6 -51z"/>
<path d="M2464 3615 c-28 -17 -66 -60 -125 -144 l-84 -121 -130 -41 c-161 -51
-200 -72 -232 -127 -22 -36 -25 -52 -21 -107 4 -63 5 -65 96 -184 l92 -121 0
-161 c0 -169 5 -194 54 -247 63 -70 135 -72 305 -8 69 25 132 46 141 46 9 0
72 -21 141 -46 170 -64 242 -62 305 8 49 53 54 78 54 247 l0 161 92 121 c91
119 92 121 96 184 4 55 1 71 -21 107 -32 55 -70 76 -232 128 l-130 42 -88 124
c-100 141 -131 164 -219 164 -38 0 -64 -7 -94 -25z m143 -90 c11 -8 54 -61 93
-117 40 -57 82 -113 94 -126 13 -15 67 -38 164 -68 234 -74 242 -96 97 -283
-52 -68 -95 -129 -96 -135 -1 -6 0 -79 1 -162 3 -249 -14 -261 -252 -174 -75
28 -142 50 -147 50 -6 0 -72 -22 -148 -50 -239 -87 -256 -75 -253 174 1 83 2
156 1 162 -1 6 -44 67 -96 135 -145 187 -137 209 97 283 97 30 151 53 164 68
12 13 54 69 94 126 78 111 101 132 140 132 14 0 35 -7 47 -15z"/>
<path d="M598 2585 c-22 -48 33 -95 74 -62 24 19 28 43 12 66 -22 30 -71 29
-86 -4z"/>
<path d="M3178 1928 c-24 -20 -28 -44 -12 -67 32 -45 104 -10 85 41 -14 36
-46 47 -73 26z"/>
<path d="M543 4668 c-6 -7 -18 -38 -27 -68 -25 -77 -50 -107 -115 -138 -49
-24 -56 -31 -59 -60 -3 -30 0 -34 45 -53 77 -33 120 -85 138 -167 4 -18 17
-40 30 -48 35 -23 61 -4 79 59 23 78 53 118 114 148 67 33 76 42 68 72 -4 18
-19 30 -51 43 -60 22 -101 66 -121 128 -9 28 -23 61 -30 74 -16 24 -56 30 -71
10z m86 -249 c18 -14 17 -17 -16 -53 l-35 -37 -34 35 -35 36 33 40 33 40 18
-23 c10 -12 26 -29 36 -38z"/>
<path d="M4506 4658 c-7 -13 -21 -46 -30 -74 -20 -62 -61 -106 -121 -128 -31
-12 -47 -25 -51 -41 -8 -33 -1 -41 66 -75 68 -34 92 -64 115 -143 29 -101 85
-98 118 7 23 72 59 114 125 143 50 22 53 25 50 55 -3 29 -10 36 -59 60 -65 30
-90 61 -115 138 -9 30 -21 61 -27 68 -15 20 -55 14 -71 -10z m77 -224 l27 -30
-32 -37 -33 -36 -35 34 -36 35 35 40 c20 21 38 36 41 32 3 -4 18 -21 33 -38z"/>
<path d="M1456 474 c-19 -18 -20 -38 -6 -65 21 -38 90 -14 90 31 0 24 -26 50
-50 50 -10 0 -26 -7 -34 -16z"/>
</g>
</svg>
